<?xml version="1.0"?>
<svg width="48" height="48" xmlns="http://www.w3.org/2000/svg" xmlns:svg="http://www.w3.org/2000/svg">

 <g class="layer">
  <title>Layer 1</title>
  <path clip-rule="evenodd" d="m24,7.88c8.8,0 16,7.25 16,16.12c0,8.87 -7.2,16.12 -16,16.12c-8.8,0 -16,-7.25 -16,-16.12c0,-8.87 7.2,-16.12 16,-16.12" fill="#cc3b07" fill-rule="evenodd" id="svg_1"/>
  <path clip-rule="evenodd" d="m44,24c0,-4.03 -1.2,-8.06 -3.6,-11.49l0,-4.83c0,-0.2 -0.2,-0.2 -0.2,-0.2l-4.8,0c-6.8,-4.64 -15.8,-4.64 -22.6,0l-5.2,0l0,5.03c-4.8,6.86 -4.8,16.12 0,22.98l0,4.83c0,0.2 0.2,0.2 0.2,0.2l4.8,0c6.8,4.64 15.8,4.64 22.8,0l4.8,0c0.2,0 0.2,-0.2 0.2,-0.4l0,-4.84c2.4,-3.22 3.6,-7.25 3.6,-11.28zm-37.4,0c0,-9.67 7.8,-17.53 17.4,-17.53c9.6,0 17.4,7.86 17.4,17.53c0,9.67 -7.8,17.53 -17.4,17.53c-9.6,0 -17.4,-7.86 -17.4,-17.53z" fill="#24262b" fill-rule="evenodd" id="svg_2"/>
  <path clip-rule="evenodd" d="m12.4,14.53l6.6,0c-0.2,0.81 -0.2,1.61 -0.2,2.42c0.2,3.02 2.2,11.08 2.2,11.08l3,-12.69l3.2,12.29c0,0 2,-10.88 2,-11.69c0,-0.6 -0.4,-1.01 -0.8,-1.41l7,0c-1,0.81 -1.6,2.01 -2,3.22c-0.6,2.42 -2.8,14.51 -2.8,15.32c0,0.8 0.4,1.61 0.8,2.21l-6.4,0c0.2,-0.6 0.2,-1.2 0.2,-1.81c0,-1.21 -1,-6.45 -1,-6.45c0,0 -1.4,5.44 -1.4,6.45c0,0.61 0.2,1.21 0.4,1.81l-6.6,0c0,0 1.2,-1 1.2,-1.81c-0.2,-2.42 -3.6,-15.31 -3.8,-16.32c0,-1.01 -0.6,-2.02 -1.6,-2.62z" fill="#eed575" fill-rule="evenodd" id="svg_3"/>
 </g>
</svg>